<svg xmlns="http://www.w3.org/2000/svg" viewBox="0 0 48 48" width="48px" height="48px"><path fill="#6dbc51" d="M22.062,28.852c0,0-5.83-2.618-5.83-8.896c0-6.278,6.862-5.767,6.862-5.767s7.696-0.054,7.696,5.176 C30.79,24.587,22.062,28.852,22.062,28.852z"/><path fill="#6dbc51" d="M11.907,26.467c0,0,14.613,11.385,27.1,3.483l2.872,3.311c0,0-15.688,10.662-34.135-2.079 L11.907,26.467z"/><path fill="#fff" d="M23.952,3.386c-0.108,0-0.211,0.021-0.317,0.038C12.723,4.351,4,13.804,4,25.263 c0,12.061,9.757,21.839,21.791,21.839c12.034,0,21.791-9.777,21.791-21.839c0-0.339-0.027-0.672-0.051-1.006 C46.726,12.637,36.56,3.674,23.952,3.386z M25.808,44.975c-10.875,0-19.691-8.835-19.691-19.733 c0-10.898,8.816-19.733,19.691-19.733c10.875,0,19.691,8.835,19.691,19.733C45.499,36.14,36.683,44.975,25.808,44.975z"/></svg>
